<svg width="120" height="120" viewBox="0 0 120 120" fill="none" xmlns="http://www.w3.org/2000/svg">
<path d="M99.375 71.625H20.625C17.5184 71.625 15 74.1434 15 77.25V94.125C15 97.2316 17.5184 99.75 20.625 99.75H99.375C102.482 99.75 105 97.2316 105 94.125V77.25C105 74.1434 102.482 71.625 99.375 71.625Z" stroke="#AC45D0" stroke-width="6" stroke-linecap="round" stroke-linejoin="round"/>
<path d="M99.375 21H20.625C17.5184 21 15 23.5184 15 26.625V43.5C15 46.6066 17.5184 49.125 20.625 49.125H99.375C102.482 49.125 105 46.6066 105 43.5V26.625C105 23.5184 102.482 21 99.375 21Z" stroke="#AC45D0" stroke-width="6" stroke-linecap="round" stroke-linejoin="round"/>
</svg>
