<svg width="120" height="120" viewBox="0 0 120 120" fill="none" xmlns="http://www.w3.org/2000/svg">
<path d="M85 105C90.5228 105 95 100.523 95 95C95 89.4772 90.5228 85 85 85C79.4772 85 75 89.4772 75 95C75 100.523 79.4772 105 85 105Z" stroke="#47DDFE" stroke-width="6" stroke-linecap="round" stroke-linejoin="round"/>
<path d="M40 105C45.5228 105 50 100.523 50 95C50 89.4772 45.5228 85 40 85C34.4772 85 30 89.4772 30 95C30 100.523 34.4772 105 40 105Z" stroke="#47DDFE" stroke-width="6" stroke-linecap="round" stroke-linejoin="round"/>
<path d="M15 15H20.9579C23.3156 15 25.3529 16.647 25.8469 18.9524L39.1531 81.0476C39.6471 83.353 41.6844 85 44.0421 85H85" stroke="#47DDFE" stroke-width="6" stroke-linecap="round" stroke-linejoin="round"/>
<path d="M30 30H98.3538C101.681 30 104.08 33.189 103.158 36.3858L94.5041 66.3858C93.8867 68.5262 91.9277 70 89.7 70H38.6538" stroke="#47DDFE" stroke-width="6" stroke-linecap="round" stroke-linejoin="round"/>
</svg>
