<svg width="18" height="18" viewBox="0 0 18 18" fill="none" xmlns="http://www.w3.org/2000/svg">
<path d="M5.6135 2H3.47368C2.65979 2 2 2.65979 2 3.47368C2 10.3918 7.60822 16 14.5263 16C15.3402 16 16 15.3402 16 14.5263V12.3865C16 11.7504 15.6127 11.1784 15.0222 10.9422L12.9722 10.1222C12.4417 9.91002 11.8376 10.0057 11.3986 10.3715L10.8691 10.8128C10.251 11.3279 9.34219 11.2866 8.77329 10.7177L7.28226 9.22671C6.71337 8.65781 6.67214 7.74899 7.18719 7.13092L7.6285 6.60136C7.99428 6.16242 8.08998 5.55829 7.87778 5.0278L7.0578 2.97784C6.82157 2.38726 6.24958 2 5.6135 2Z" stroke="#838D8F" stroke-width="1.5" stroke-linecap="round" stroke-linejoin="round"/>
</svg>
