<svg width="134" height="52" viewBox="0 0 134 52" fill="none" xmlns="http://www.w3.org/2000/svg">
<path fill-rule="evenodd" clip-rule="evenodd" d="M7.7288 50.7104C7.68983 50.4754 8.24455 49.4279 8.39711 49.1126C8.68109 48.5261 8.89761 48.0479 9.14923 47.5043C9.63834 46.4476 10.184 45.3783 10.6621 44.3034L11.7773 41.949C11.9013 41.676 12.0408 41.3825 12.1634 41.1345C12.416 40.6239 12.6658 40.0498 12.9225 39.5368C13.1244 39.1337 13.4637 38.257 13.6958 37.9593L39.262 37.9532C39.441 38.141 39.6386 38.8122 39.7474 39.1C40.7273 41.6904 41.7779 44.5708 42.7682 47.0761L43.4707 48.9419C43.6294 49.3036 43.808 49.8007 43.9407 50.1589C44.0058 50.3346 44.1894 50.6788 43.9523 50.7258L9.39094 50.7251C8.96892 50.7251 8.09732 50.773 7.7288 50.7101V50.7104ZM65.3156 27.742H66.2326L66.4866 27.0123H65.5711L65.3155 27.742H65.3156ZM104.606 7.72455L105.215 8.0908L106.952 5.49411C106.811 5.35975 106.551 5.18023 106.368 5.07549L104.606 7.72455H104.606ZM102.485 38.0561C102.516 39.7691 104.648 39.6565 105.2 39.1171C105.379 38.9427 105.645 38.4329 105.602 38.0407L104.944 37.9361C104.917 38.6209 104.747 38.9227 104.064 38.9242C103.438 38.9255 103.24 38.5332 103.208 37.9371C102.979 37.9552 102.661 37.9682 102.485 38.0562V38.0561ZM104.604 22.8533L105.743 24.6009C105.94 24.9007 106.124 25.1835 106.316 25.4739C106.501 25.7537 106.75 26.0957 106.894 26.3668C107.032 26.3157 107.08 26.2671 107.207 26.1821C107.246 26.1564 107.298 26.1273 107.361 26.0879C107.439 26.0387 107.359 26.0964 107.435 26.0385C107.493 25.995 107.491 25.9928 107.523 25.9591L105.216 22.5083C105.056 22.619 104.794 22.7822 104.604 22.8533H104.604ZM99.8836 40.2608C100.029 42.3604 100.14 42.7457 99.9808 45.0172L100.849 45.0163C100.781 43.3447 100.772 41.8126 100.84 40.1431L99.8836 40.2608ZM118.016 27.7419H118.933L118.934 23.4351C118.96 23.1538 119.353 22.8183 119.457 22.5207L119.041 22.039L118.327 22.961C117.923 23.4855 118.042 23.4209 118.035 24.3436C118.027 25.4759 118.017 26.6098 118.016 27.7419ZM123.989 40.9487L125.61 40.8654C125.72 42.2053 125.639 43.6868 125.588 45.0152L126.502 45.0172C126.419 43.6788 126.38 42.2136 126.446 40.8741L128.05 40.9415L128.081 40.181L124.024 40.1721L123.989 40.9487ZM89.7323 44.8988L89.7794 44.2412C89.0635 44.3567 88.5501 44.6202 87.8004 44.2436C86.4367 43.5585 86.6433 41.5879 87.4702 41.0253C88.1452 40.566 88.68 40.7723 89.4171 40.9402L89.5765 40.1688C88.7098 39.8977 87.5919 40.0594 86.992 40.5447C86.4556 40.9785 85.9517 41.6471 85.9664 42.7386C85.9728 43.2137 86.1095 43.6632 86.3198 43.9927C86.5623 44.3722 86.7354 44.5536 87.1282 44.7918C87.7654 45.1784 89.0826 45.3203 89.7323 44.8986V44.8988ZM64.7988 44.8988L64.8456 44.2412C64.1297 44.3567 63.6166 44.6202 62.8666 44.2436C61.503 43.5585 61.7096 41.5879 62.5365 41.0253C63.2113 40.566 63.7463 40.7723 64.4832 40.9402L64.6427 40.1688C62.6975 39.5592 60.9997 40.8693 61.0325 42.7381C61.0409 43.2111 61.1744 43.661 61.3861 43.9927C61.6285 44.3722 61.8017 44.5536 62.1943 44.7918C62.8317 45.1784 64.1487 45.3203 64.7986 44.8986L64.7988 44.8988ZM96.3978 42.645C97.2635 42.5645 98.4209 42.4803 98.4397 43.4823C98.4588 44.5046 97.315 44.5146 96.414 44.3724L96.398 42.6452L96.3978 42.645ZM95.4935 40.2604C95.6352 41.9001 95.6784 42.2182 95.6469 43.8574C95.6416 44.1309 95.5879 44.8075 95.6251 45.0205C96.1298 45.079 97.4287 45.0901 97.8844 44.9621C98.4902 44.7916 99.0072 44.444 99.1629 43.8546C99.6197 42.1259 97.7811 41.8157 96.3932 42.0376L96.4231 40.1342L95.4933 40.2602L95.4935 40.2604ZM119.234 40.2595C119.448 42.5501 119.436 42.6913 119.336 45.0135L120.215 45.0176L120.124 42.7807L122.541 42.7801L122.483 45.0017L123.349 45.0166C123.311 44.209 123.273 43.4169 123.273 42.613C123.274 41.7815 123.332 40.9563 123.341 40.1344L122.375 40.2626L122.552 42.1594L120.136 42.1611L120.198 40.1331L119.234 40.2595ZM90.3913 40.2595C90.6061 42.5501 90.5936 42.6913 90.4934 45.0135L91.3724 45.0176L91.2818 42.7807L93.6957 42.7801L93.6411 45.0018L94.5068 45.0166C94.4689 44.209 94.4302 43.4169 94.4309 42.613C94.4316 41.7815 94.4893 40.9563 94.4982 40.1344L93.5326 40.2626L93.7096 42.1594L91.2937 42.1611L91.3553 40.1331L90.3911 40.2595H90.3913ZM67.6512 21.0728L68.4741 21.087C68.6107 20.9863 69.4406 19.6307 69.5964 19.3846C69.9706 18.7938 70.3201 18.2595 70.6855 17.6629C70.8652 17.3692 71.0509 17.0951 71.2332 16.8066C71.4576 16.4509 71.3931 16.5155 71.1395 15.8185C71.0211 15.4935 70.4903 13.9182 70.3669 13.7528L67.6514 21.0728H67.6512ZM80.8452 40.2589C80.92 41.0758 81.0048 41.7276 81.0121 42.5715C81.0191 43.3945 80.9812 44.1944 80.9478 45.0133C81.8223 45.0187 81.5192 45.1327 81.8861 44.5601C82.1853 44.0926 82.5892 43.6555 82.9209 43.2398L84.0976 41.7322C84.1234 41.6932 84.1474 41.648 84.1763 41.6062L84.2805 41.4843L84.1737 45.0135L85.0507 45.0166C84.9917 43.3385 84.9885 41.8194 85.0416 40.1409L84.3329 40.2635C84.1943 40.7832 83.3826 41.6684 83.0922 42.0435L81.7444 43.7835L81.8177 40.1405L80.8454 40.2586L80.8452 40.2589ZM101.831 40.2591C102.038 42.4696 102.029 42.7718 101.933 45.0117C103.011 45.0218 102.36 45.1486 103.201 44.1061L103.909 43.2443C104.009 43.1121 104.146 42.9509 104.246 42.8373C104.773 42.2388 104.968 41.8461 105.198 41.5564C105.249 41.4922 105.199 41.5363 105.268 41.4848L105.161 45.0089L106.043 45.0178C105.937 43.3642 105.99 41.785 106.029 40.1368L105.339 40.2606C105.133 40.6676 105.05 40.8291 104.76 41.2009C104.206 41.9119 103.59 42.6039 103.077 43.3166L102.847 43.6634C102.841 43.6718 102.835 43.6816 102.829 43.6897L102.729 43.7874L102.801 40.1386L101.831 40.2589V40.2591ZM66.2898 42.1111C66.3459 41.3022 66.7964 40.6924 67.5707 40.6357C68.4399 40.5719 68.9588 41.1624 68.8594 42.0548L66.2898 42.1111ZM69.6121 44.2429C69.2345 44.2945 68.9461 44.3994 68.5061 44.4237C67.7297 44.4664 67.0831 44.3343 66.6047 43.7078C66.39 43.4265 66.2957 43.1147 66.2464 42.6922L69.6837 42.6354C70.2453 39.5486 66.3459 39.0291 65.55 41.7804C65.1546 43.1471 65.7408 44.2982 66.59 44.7975C67.0899 45.0914 67.7497 45.1492 68.3934 45.1331C68.7131 45.1251 69.0388 45.089 69.3354 45.01C69.5898 44.9421 69.5558 44.9228 69.6117 44.2431L69.6121 44.2429ZM115.005 42.1111C115.061 41.3022 115.511 40.6924 116.286 40.6357C117.155 40.5719 117.674 41.1624 117.574 42.0548L115.005 42.1111ZM118.327 44.2429C117.428 44.3661 116.153 44.7994 115.32 43.7078C115.105 43.4265 115.011 43.1147 114.962 42.6922L118.399 42.6354C118.96 39.5486 115.061 39.0291 114.265 41.7804C113.87 43.1471 114.456 44.2982 115.305 44.7975C115.805 45.0914 116.465 45.1493 117.109 45.1331C117.428 45.1251 117.754 45.089 118.051 45.01C118.305 44.9421 118.271 44.9228 118.327 44.2431L118.327 44.2429ZM3.69596 31.4092C4.33413 30.968 5.13202 32.0867 4.30784 32.6028C3.8294 32.9025 3.10797 32.3645 3.36217 31.7384C3.44856 31.5259 3.55461 31.5069 3.69596 31.4092ZM5.88947 32.4633C6.08798 31.9597 5.82422 31.1751 5.58987 30.8634C4.89748 29.9425 3.68989 29.8065 2.89586 30.3552C1.3826 31.4008 2.01544 33.6439 3.53495 33.9289C4.39019 34.0893 5.15885 33.769 5.60347 33.1227C5.79334 32.8468 5.7689 32.7692 5.88947 32.4633ZM76.8624 42.8984C77.6838 42.866 79.1586 42.6417 79.1721 43.6492C79.1851 44.6269 77.6921 44.4803 76.8727 44.3706L76.8624 42.8984ZM76.8308 40.8389C77.5862 40.7873 78.9945 40.5756 78.9949 41.4957C78.9952 42.4429 77.7114 42.2791 76.8955 42.2517C76.8352 42.0985 76.8219 41.0691 76.8308 40.8387V40.8389ZM75.957 40.2245C75.9571 40.5258 76.047 40.9983 76.0716 41.3356C76.1016 41.7496 76.1158 42.1566 76.1183 42.5715C76.1211 42.9815 76.0266 44.8201 76.0753 45.0265C77.3851 45.0725 80.1914 45.3938 79.9795 43.4086C79.8955 42.6209 79.3557 42.6145 79.0607 42.447C79.1814 42.2762 79.6893 42.2277 79.7665 41.4778C79.9475 39.7189 77.346 40.2243 75.957 40.2243V40.2245ZM108.988 40.2595C109.062 41.0767 109.152 41.7263 109.16 42.5717C109.168 43.3947 109.125 44.1946 109.09 45.0141L112.816 45.0179L112.84 47.1188L113.417 47.126C113.442 46.1948 113.614 45.3096 113.643 44.402L112.822 44.3976C112.772 42.9506 112.764 41.5818 112.835 40.1329L111.851 40.2615C111.865 40.7545 111.996 41.3852 112.012 42.2403C112.026 42.9533 112.013 43.6719 112.033 44.3819L109.908 44.3983C109.928 42.9744 109.917 41.5516 109.991 40.1325L108.988 40.2595H108.988ZM118.07 12.7854L118.07 13.0656L118.716 12.2511C118.832 12.0909 118.947 12.0259 118.975 11.7779C119.291 8.91972 119.558 5.81298 119.845 2.92925L118.1 2.92944L118.07 12.7854ZM130.54 40.7828C131.591 40.6359 132.188 41.2226 132.337 42.1492C132.615 43.8846 131.329 44.9498 130.006 44.3739C129.563 44.1807 129.688 44.1731 129.658 43.1101C129.615 41.5618 129.295 40.957 130.54 40.7828ZM129.564 40.6344L129.498 40.1323L128.609 40.2495C128.949 42.4085 128.933 45.0935 128.746 47.2906L129.689 47.2895L129.658 44.8107C129.85 44.8758 129.901 44.992 130.218 45.0672C130.902 45.2291 131.669 45.1432 132.222 44.7409C133.954 43.4806 133.575 39.6212 130.716 40.0753C130.39 40.1272 130.075 40.2371 129.829 40.4262C129.687 40.535 129.762 40.5462 129.564 40.6342V40.6344ZM72.4445 40.7828C74.7543 40.4599 74.6994 43.8457 73.2907 44.3972C72.8749 44.5601 72.3232 44.5536 71.9103 44.3739C71.6368 44.2547 71.5751 44.2605 71.5762 43.8999C71.5786 43.0934 71.5124 42.2771 71.5041 41.4917C71.4995 41.0455 71.987 40.8465 72.4445 40.7827V40.7828ZM71.4681 40.6344L71.4023 40.1323L70.5134 40.2495C70.8529 42.4081 70.8365 45.0968 70.65 47.2906L71.5927 47.2895L71.5618 44.8107C71.7535 44.8758 71.8048 44.992 72.1217 45.0672C75.8853 45.9581 76.2716 39.4951 72.6198 40.0753C72.2937 40.1272 71.9793 40.2371 71.7326 40.4262C71.5911 40.535 71.6659 40.5462 71.4681 40.6342V40.6344ZM81.9363 27.7744L82.7891 27.7783L73.566 2.98514L72.6987 2.99014L81.9363 27.7746V27.7744ZM122.764 16.9766C123.672 18.2049 125.099 19.7784 126.044 21.0213L131.31 27.4846C131.566 27.8225 131.439 27.8203 132.399 27.7707L130.228 25.0917C129.843 24.622 129.494 24.2104 129.132 23.7511L128.294 22.7323C128.203 22.6223 128.113 22.5031 128.018 22.3877L127.205 21.3833C127.103 21.2623 127.013 21.1662 126.924 21.0463L123.632 16.9696C123.842 16.6184 127.08 12.2948 127.513 11.7054L134 2.94295L133.194 2.92962C133.068 2.94813 132.957 3.16022 132.842 3.31734C132.723 3.48076 132.642 3.60142 132.509 3.7678C132.001 4.40073 131.061 5.72489 130.563 6.40742C130.118 7.01685 129.704 7.57501 129.266 8.16778C127.126 11.0665 124.918 14.1188 122.764 16.977V16.9766ZM98.109 23.8708C96.8613 23.6735 96.0875 23.5401 95.0343 22.9991C94.7924 22.8749 94.6059 22.793 94.3941 22.6469C94.0607 22.4173 93.3613 21.8064 93.0854 21.4777C92.9996 21.3755 92.9132 21.3035 92.8279 21.1997C90.0137 17.7728 90.3357 12.6466 93.4827 9.58799C94.8353 8.27364 96.1638 7.54503 98.0851 7.21228C98.3669 7.16342 98.7234 7.15954 98.99 7.09717C98.2092 6.73832 98.1904 6.63635 97.1935 6.70853C94.3245 6.91654 91.8703 8.65821 90.4468 11.1278C88.8879 13.8323 89.1 17.277 90.7589 19.9694C90.9081 20.2114 91.0623 20.4047 91.2226 20.6197C91.3027 20.7272 91.3994 20.8516 91.477 20.9451L91.7595 21.2389C92.4568 22.0238 93.4207 22.6249 94.3895 23.1041C95.3466 23.5775 96.8834 23.9374 98.1094 23.8704L98.109 23.8708ZM104.864 25.9178L103.707 24.1193C101.884 25.1739 100.633 25.7281 98.3461 25.8233C94.9196 25.9658 91.8343 24.4687 89.8009 21.9255C89.5368 21.5952 89.2886 21.3011 89.0438 20.9075C86.4222 16.6961 87.0672 11.154 90.6085 7.77118C91.3279 7.08384 91.6707 6.74924 92.6094 6.18164C95.1328 4.65501 98.3604 4.33596 101.307 5.28387C102.26 5.59016 102.969 6.02377 103.708 6.46313L104.874 4.6291C101.091 2.08312 95.5765 1.81126 91.5172 4.29579C89.8575 5.312 88.1786 6.91303 87.171 8.57586C86.0015 10.5065 85.2806 12.5637 85.2795 15.3121C85.2775 19.795 87.671 24.0242 91.5148 26.2902C93.5398 27.4841 95.633 28.0953 98.3873 28.0217C100.214 27.9728 101.952 27.5261 103.514 26.7297C103.841 26.5635 104.665 26.1197 104.864 25.9175L104.864 25.9178ZM113.9 27.7419L116.07 27.7415C116.07 27.4017 116.011 22.8809 116.104 22.6728L117.675 20.5664C117.886 20.2845 118.088 20.0079 118.289 19.7345C118.494 19.4556 118.706 19.1593 118.928 18.883C119.125 18.9635 122.268 22.8811 122.698 23.3955C123.533 24.3956 124.564 25.7235 125.383 26.6574L126.035 27.4498C126.289 27.7517 126.156 27.747 126.651 27.7424C127.402 27.7348 128.299 27.7913 129.028 27.7335L125.225 23.0863C124.364 22.0118 123.314 20.8209 122.487 19.7532L120.288 17.0827C120.386 16.8601 121.325 15.6306 121.554 15.317C121.774 15.0162 121.992 14.7323 122.205 14.4403L130.358 3.38397C130.473 3.22536 130.598 3.09804 130.689 2.93073L128.027 2.93036C127.101 4.12701 126.006 5.77745 125.08 6.93486C124.35 7.84577 122.815 9.98793 122.111 10.9475L117.683 16.928C117.423 17.2811 117.191 17.5813 116.942 17.9212L116.231 18.8777C116.125 18.9702 116.321 18.8519 116.127 18.9497L116.156 2.93129C115.798 2.92518 114.147 2.8865 113.926 2.95553L113.9 27.742L113.9 27.7419ZM70.3666 8.14336C70.5 8.31936 70.9538 9.68293 71.0687 10.0072L73.0994 15.5855C73.3429 16.2358 75.6511 22.475 75.8116 23.0593L64.8876 23.0565L70.3666 8.14354V8.14336ZM60.8527 27.7387L63.1785 27.7417L64.0801 25.2214L76.6574 25.2146L77.5667 27.7383L79.847 27.7395L70.38 1.76388L60.8527 27.7387ZM43.7203 33.3117C43.4432 33.4001 34.7371 33.3433 33.6657 33.3433H9.71976C9.51408 33.3433 9.30804 33.3418 9.10236 33.3437C8.78089 33.3466 8.64157 33.4347 8.63017 33.1325C8.60131 32.3858 8.60444 31.3446 8.63734 30.5969C8.67153 29.8109 8.98399 29.2352 9.40288 28.7886C9.88868 28.2706 10.4427 28.0828 11.1597 28.0385C11.9618 27.9893 12.8571 28.025 13.6695 28.025H38.8911C39.7318 28.025 40.5648 28.0367 41.4033 28.0456C41.7375 28.0493 42.1078 28.1906 42.3624 28.3478C42.5591 28.4694 42.5513 28.4649 42.7245 28.6039C43.204 28.9892 42.9419 28.8041 43.1939 29.0834C43.3154 29.218 43.2527 29.1097 43.3344 29.2655C43.6213 29.8122 43.7352 30.0819 43.7246 30.7648C43.7123 31.5672 43.781 32.5364 43.7202 33.3117H43.7203ZM14.5613 1.29696C14.8986 1.23422 33.7523 1.28011 35.476 1.28011C35.8943 1.28011 38.2673 1.21442 38.4321 1.31546C38.5301 1.4104 38.6986 6.44906 38.7128 7.23393C38.7187 7.56743 38.7089 7.94385 38.7304 8.27161C38.7435 8.46704 38.7854 8.48166 38.7904 8.72262L38.8115 10.2996C38.817 10.6986 38.8747 10.8807 38.8804 11.2518C38.8859 11.5975 38.8929 11.9424 38.8966 12.2881L38.9561 13.2849C39.0175 13.9251 38.9267 14.7127 39.0052 15.3277C39.0503 15.6814 39.1263 17.0386 39.0396 17.3658C37.9811 17.4265 35.1306 17.3697 33.8712 17.3697C27.782 17.3697 21.6926 17.3697 15.6033 17.3697C15.1646 17.3697 14.7229 17.3647 14.2845 17.3714C13.8342 17.3779 13.8792 17.4051 13.9794 16.5071L14.0695 13.9871C14.1226 13.1211 14.1176 12.2526 14.1509 11.3863C14.2143 9.73383 14.309 8.04268 14.3476 6.36448C14.3579 5.91421 14.4011 5.56666 14.4068 5.12157C14.4125 4.67944 14.4176 4.23768 14.4239 3.79556C14.4292 3.41672 14.4884 3.22055 14.4981 2.55301C14.5036 2.17214 14.4488 1.62268 14.5612 1.29733L14.5613 1.29696ZM40.3426 15.3249C41.0456 15.2677 43.6952 15.3257 44.6522 15.3166C45.0691 15.3127 45.1641 15.463 45.3599 15.6758C46.3339 16.7359 47.1733 18.4156 47.7359 19.7902C47.8647 20.1054 47.9783 20.4004 47.751 20.6691C47.0544 21.491 45.3499 21.3524 44.0751 21.3524C32.4999 21.3524 20.9246 21.3524 9.34921 21.3524C8.02656 21.3524 6.40725 21.5023 5.5941 20.7916C5.05427 20.3201 5.52701 19.6944 5.73416 19.2086C6.11721 18.3106 6.71751 17.1848 7.27039 16.4066C7.46614 16.1311 7.99715 15.3553 8.36035 15.3177L12.7049 15.331C12.8312 16.0998 12.447 17.9383 12.7431 18.3585C12.9222 18.6128 13.1536 18.6561 13.5456 18.6569L39.4673 18.6571C39.8116 18.6572 40.0821 18.6319 40.2562 18.3863C40.4926 18.0532 40.369 17.867 40.354 17.51C40.336 17.0825 40.281 15.6673 40.3426 15.3249ZM7.5801 22.6612L45.5975 22.661C46.2923 22.661 46.9233 22.5244 47.5591 22.3068C48.3706 22.0286 49.378 21.1697 49.1247 19.9651C49.0117 19.4271 48.4575 18.2092 48.1976 17.7088C47.8892 17.1149 47.7354 16.7742 47.3549 16.1949C47.2626 16.0545 47.0683 15.869 47.1202 15.6895C47.3025 15.6741 47.288 15.7076 47.3975 15.8196C47.9644 16.3994 48.2006 16.8921 48.5722 17.6577C49.0196 18.5795 49.519 20.1065 49.7673 21.1335C49.9138 21.7396 49.9954 22.3579 50.1129 22.9915C50.1586 23.2384 50.1568 23.4988 50.2033 23.732C50.3457 24.4438 50.3165 24.6486 50.3362 25.3402C50.3439 25.6073 50.4005 25.7831 50.4005 26.1247V41.2042C50.4005 41.4002 50.3285 41.9904 50.279 42.1498C50.0116 43.0148 49.6397 43.6012 48.9062 44.1198C48.4029 44.4757 47.973 44.5745 47.2685 44.6739C46.872 44.7298 45.4806 44.7202 45.0592 44.6787L45.0435 30.806C45.0435 28.4579 43.3119 26.6885 40.9482 26.6885H11.3654C10.9376 26.6885 10.5489 26.7392 10.201 26.8587C9.62326 27.0571 9.82214 26.944 9.25106 27.2692C8.75167 27.5533 8.15467 28.1262 7.88981 28.6352C7.82621 28.7573 7.73744 28.9261 7.66557 29.0769C7.59554 29.2237 7.54518 29.4193 7.48526 29.5972C7.18786 30.4794 7.30421 32.5262 7.30421 33.499C7.30421 37.1444 7.29686 40.7904 7.30439 44.4357L7.29539 44.6854C6.62285 44.7487 5.64924 44.6907 4.94693 44.6913C3.13554 44.6931 2.02537 43.9001 1.44491 42.2528C1.37452 42.0532 1.29603 41.4352 1.29603 41.2044V26.1249C1.29603 25.7938 1.35485 25.5854 1.36128 25.2984C1.36827 24.9814 1.37066 24.6592 1.38426 24.3425C1.40595 23.836 1.56439 23.2329 1.6085 22.7241C1.6629 22.1001 2.14888 20.2065 2.32037 19.6649C2.67897 18.5327 3.34967 16.7251 4.19131 15.9179C4.94803 15.1922 5.17742 15.3047 6.39861 15.3303L5.7746 16.315C5.3864 16.9454 4.32236 19.0039 4.1698 19.6686C3.79484 21.3017 4.71717 22.0666 6.17014 22.4469C6.71291 22.589 6.97281 22.6614 7.5801 22.6614V22.6612ZM12.7441 14.0444C11.8249 14.1112 10.6652 14.0507 9.71976 14.0507C8.45997 14.0507 6.3034 14.0052 5.10959 14.0559C3.30942 14.1325 2.07646 16.6681 1.49583 18.1735C1.3407 18.5758 1.25394 18.9324 1.12326 19.3361C1.05745 19.5393 0.988712 19.7284 0.939636 19.9479C0.892215 20.1602 0.794431 20.3297 0.762082 20.5368C0.663931 21.1645 0.412303 22.0569 0.356795 22.445C0.340436 22.56 0.354038 22.689 0.335106 22.8067C0.309557 22.9649 0.278494 22.9356 0.263422 23.1401C0.228316 23.618 0.145788 24.0947 0.105719 24.5108L0.0270505 26.0013C-0.0330533 28.0215 0.0257639 30.1418 0.0257639 32.1731C0.0257639 32.3499 -0.0144891 41.126 0.0430414 41.4276C0.147442 41.9749 0.0345864 41.8581 0.272245 42.7216C0.382527 43.1217 0.581403 43.4504 0.764839 43.7998C1.25743 44.7379 2.3632 45.4601 3.39434 45.7826C3.52245 45.8226 3.58494 45.8559 3.67905 45.8731C3.82278 45.8991 3.90549 45.8789 4.05052 45.9157C4.47823 46.024 7.23216 45.9755 7.82677 45.9753C8.1839 45.9751 8.18132 45.8498 8.49452 45.8691C8.45887 46.115 7.92565 47.1583 7.77622 47.4929L6.26168 50.6901C6.13669 50.9481 5.93836 51.2471 6.06592 51.5499C6.17437 51.807 6.45871 52 6.79802 52H44.8978C45.2455 52 45.6111 51.7838 45.6723 51.4276C45.7165 51.1715 45.1092 49.6939 44.9755 49.3672C44.8426 49.0417 44.7382 48.668 44.5938 48.3412C44.3205 47.7223 44.072 46.9615 43.8358 46.3343L40.7006 38.0511C40.66 37.9441 40.6361 37.8963 40.5933 37.7929C40.345 37.192 40.3556 36.7003 39.5903 36.7003H13.4223C13.1025 36.7003 12.954 36.7369 12.8253 36.8796C12.6865 37.0334 11.1393 40.3833 10.8921 40.8922C10.7992 41.0832 10.7316 41.2527 10.6272 41.4522C10.1728 42.3211 9.44075 43.9586 8.97903 44.9319C8.76913 45.374 8.82004 45.3879 8.59121 45.3611L8.57227 34.9902C8.57227 34.6882 8.58238 34.6229 8.89632 34.6229L43.4577 34.6223C43.8946 34.6223 43.7786 34.7778 43.7786 35.8186L43.7773 45.1821C43.7817 45.753 44.0346 45.9751 44.5684 45.9751C46.6178 45.9751 48.7567 46.2455 50.2963 44.6082C51.1348 43.7164 51.67 42.5419 51.67 41.2041V26.166C51.67 25.687 51.609 25.2531 51.5984 24.7567C51.591 24.4149 51.4563 23.6726 51.4436 23.4344L50.8639 20.2777C50.8056 20.0936 50.7479 19.8667 50.6935 19.6999C50.5571 19.282 50.4485 18.9633 50.3461 18.5538C50.2792 18.2858 49.6184 16.7886 49.4205 16.4751C49.0486 15.8864 48.7619 15.2848 48.1438 14.7775C47.2966 14.0829 46.8737 14.0504 45.8438 14.0504L40.6587 14.0509C40.2685 14.055 40.2371 14.1362 40.2356 13.7376C40.2338 13.1035 40.1722 12.5626 40.1588 11.9149C40.1286 10.45 40.0235 8.90639 39.993 7.3992C39.986 7.05423 39.9382 6.8414 39.9362 6.53067C39.9285 5.2774 39.8454 4.12276 39.8265 2.88354C39.8165 2.22563 39.7515 1.76647 39.7439 1.10226C39.7379 0.557795 39.6647 0 38.9725 0L14.0801 0.000185068C13.8366 0.000185068 13.5703 0.0934593 13.43 0.284449C13.2765 0.493576 13.2786 0.731573 13.2685 1.06081C13.2486 1.70022 13.2328 2.32427 13.2122 2.96812C13.1727 4.20104 13.0757 5.42952 13.0604 6.65338C13.0569 6.93283 13.0729 7.33942 13.0429 7.60407C12.9876 8.09191 12.9847 7.78766 12.9758 8.47648L12.9595 9.92796C12.9483 10.143 12.9058 10.1141 12.8955 10.3384C12.8672 10.9569 12.874 11.625 12.8705 12.2478C12.8687 12.5641 12.8158 12.8026 12.8145 13.1578C12.8134 13.4483 12.8547 13.859 12.7433 14.0442L12.7441 14.0444Z" fill="white"/>
</svg>
